<?xml version="1.0" standalone="no"?>
<!DOCTYPE svg PUBLIC "-//W3C//DTD SVG 1.1//EN" "http://www.w3.org/Graphics/SVG/1.1/DTD/svg11.dtd">
<svg width="24mm" height="30mm" viewBox="-12 -15 24 30" xmlns="http://www.w3.org/2000/svg" version="1.1">
<title>OpenSCAD Model</title>
<path d="
M 0.229416,14.2053 L 0.347672,14.0146 L 0.52446,13.6968 L 0.759796,13.2518 L 1.60609,12.3428 L 2.2106,11.4669
 L 2.5733,10.624 L 2.6942,9.81412 L 2.6942,8.87872 L 2.28259,7.24344 L 1.9886,5.99699 L 1.81219,5.13939
 L 1.7534,4.67062 L 1.7534,4.16092 L 2.1011,4.16092 L 2.78394,6.26039 L 3.67055,7.76001 L 4.76094,8.65979
 L 6.0551,8.95972 L 7.0123,8.68663 L 7.69603,8.27385 L 8.10625,7.72137 L 8.243,7.02922 L 8.243,6.60231
 L 8.16956,6.10182 L 7.94922,5.65724 L 7.582,5.26857 L 7.0679,4.93582 L 6.91551,5.59587 L 6.68187,6.06734
 L 6.36696,6.35022 L 5.97079,6.44452 L 5.48329,6.44452 L 4.99197,6.31326 L 4.5743,5.91951 L 4.23027,5.26326
 L 3.9599,4.34451 L 3.9599,4.16092 L 4.54855,4.11502 L 4.96902,4.01811 L 5.2213,3.87022 L 5.3054,3.67131
 L 5.3054,3.08002 L 5.22641,2.88762 L 4.98943,2.73854 L 4.59445,2.63277 L 4.0415,2.57031 L 3.9599,2.57031
 L 3.9599,2.38702 L 4.33025,1.28098 L 4.8326,0.490936 L 5.46695,0.016922 L 6.23329,-0.141068 L 6.63919,-0.141068
 L 7.17593,-0.0404053 L 7.60864,0.261597 L 7.93733,0.764938 L 8.162,1.46962 L 8.0804,2.06091 L 8.1161,2.06602
 L 8.1416,2.08131 L 8.15689,2.10681 L 8.162,2.14252 L 8.5901,2.14252 L 9.92084,1.58302 L 10.8714,0.820114
 L 11.4417,-0.146164 L 11.6318,-1.31587 L 11.6318,-1.64166 L 11.6102,-1.97467 L 11.5453,-2.32297 L 11.4372,-2.68657
 L 11.2859,-3.06546 L 10.6139,-4.06244 L 9.79947,-4.77457 L 8.84256,-5.20184 L 7.74319,-5.34427 L 6.73814,-5.2133
 L 5.75847,-4.82039 L 4.80418,-4.16554 L 3.87529,-3.24876 L 3.06483,-1.60329 L 2.48592,-0.0850372 L 2.13858,1.30595
 L 2.0228,2.56972 L 1.8596,2.56972 L 1.79483,2.55827 L 1.74275,2.52397 L 1.70334,2.46678 L 1.67659,2.38672
 L 1.67659,2.14252 L 1.71358,1.43947 L 1.82449,0.672821 L 2.00937,-0.157425 L 2.2682,-1.05127 L 3.16017,-3.12859
 L 3.7973,-4.84492 L 4.17957,-6.20029 L 4.30699,-7.19467 L 4.30699,-7.54027 L 4.24332,-8.09712 L 4.05229,-8.73029
 L 3.73392,-9.43977 L 3.28819,-10.2256 L 2.61047,-10.9121 L 2.00412,-11.5477 L 1.46913,-12.1326 L 1.00549,-12.6667
 L 0.68576,-13.6252 L 0.439926,-14.3245 L 0.268005,-14.7643 L 0.169998,-14.9449 L 0.0883942,-14.9449 L -0.210815,-13.9444
 L -0.520218,-13.1193 L -0.839767,-12.4697 L -1.16949,-11.9956 L -2.38551,-10.8374 L -3.25412,-9.68175 L -3.77527,-8.52872
 L -3.94899,-7.37827 L -3.94899,-7.19527 L -3.92242,-6.59393 L -3.84271,-6.03075 L -3.70987,-5.50569 L -3.52388,-5.01877
 L -2.57587,-2.72537 L -1.89871,-0.767624 L -1.49242,0.854507 L -1.35699,2.14102 L -1.35699,2.38522 L -1.36716,2.46529
 L -1.39764,2.52246 L -1.44846,2.55678 L -1.51959,2.56822 L -1.68248,2.48692 L -1.8083,1.64789 L -1.92143,0.961411
 L -2.0219,0.42749 L -2.10968,0.0461121 L -3.07593,-2.31216 L -4.26587,-3.99667 L -5.67947,-5.00737 L -7.31679,-5.34427
 L -7.51517,-5.33409 L -7.76439,-5.30354 L -8.06447,-5.25264 L -8.41539,-5.18137 L -9.67014,-4.59206 L -10.5664,-3.81982
 L -11.1041,-2.86465 L -11.2834,-1.72656 L -11.2834,-0.893173 L -10.7121,0.434799 L -9.97539,1.38336 L -9.07321,1.9525
 L -8.00558,2.14221 L -7.95078,2.13713 L -7.88837,2.12189 L -7.81833,2.09648 L -7.74069,2.06091 L -7.82199,1.63281
 L -7.64645,0.856735 L -7.32324,0.302399 L -6.85236,-0.0301971 L -6.23378,-0.141068 L -5.88728,-0.141068 L -5.11842,0.0169373
 L -4.48193,0.491013 L -3.97783,1.28114 L -3.60609,2.38731 L -3.60609,2.57062 L -4.23491,2.61777 L -4.68407,2.75925
 L -4.95355,2.99503 L -5.04338,3.32512 L -4.95355,3.69092 L -4.68407,3.95219 L -4.23491,4.10896 L -3.60609,4.16122
 L -3.60609,4.34451 L -3.88461,5.26326 L -4.23181,5.91951 L -4.64767,6.31326 L -5.13219,6.44452 L -5.64069,6.44452
 L -6.02975,6.35022 L -6.34254,6.06734 L -6.57906,5.59587 L -6.73929,4.93582 L -7.24893,5.26857 L -7.61296,5.65724
 L -7.83138,6.10182 L -7.90419,6.60231 L -7.90419,7.02922 L -7.77264,7.69843 L -7.37799,8.24324 L -6.72023,8.66368
 L -5.79939,8.95972 L -4.8412,8.80721 L -3.97696,8.34967 L -3.20665,7.58711 L -2.53029,6.51952 L -2.21036,5.53331
 L -1.96156,4.81146 L -1.78391,4.354 L -1.67738,4.16092 L -1.43379,4.16092 L -1.43379,4.93582 L -1.83699,6.61627
 L -2.12498,7.87762 L -2.29779,8.71986 L -2.35539,9.14302 L -2.35539,9.63112 L -2.31847,10.1396 L -2.20772,10.6481
 L -2.02312,11.1566 L -1.76469,11.6651 L -1.1552,12.4 L -0.629639,13.0789 L -0.188004,13.7019 L 0.169693,14.2688
 z
" stroke="black" fill="lightgray" stroke-width="0.5"/>
</svg>
