<?xml version="1.0" standalone="no"?>
<!DOCTYPE svg PUBLIC "-//W3C//DTD SVG 1.1//EN" "http://www.w3.org/Graphics/SVG/1.1/DTD/svg11.dtd">
<svg width="35mm" height="30mm" xmlns="http://www.w3.org/2000/svg" version="1.1">
<title>GV_J</title>
<g transform="translate(-3.3463, 0.1203)">
<path d="
M -3.24545,14.642 L -1.60963,14.3444 L -0.0331726,13.8483 L 1.48392,13.1538 L 2.93854,12.2773 L 4.32751,11.2351
 L 5.65086,10.0274 L 6.90858,8.65399 L 8.09755,7.13147 L 9.21465,5.47614 L 10.2599,3.68797 L 11.2333,1.76701
 L 11.6684,0.810089 L 12.0739,-0.135895 L 12.4496,-1.07098 L 12.7957,-1.99516 L 13.1222,-2.90918 L 13.4393,-3.81383
 L 13.7471,-4.70909 L 14.0456,-5.59497 L 14.3456,-6.47148 L 14.6581,-7.33859 L 14.983,-8.19632 L 15.3205,-9.04468
 L 15.6791,-9.88295 L 16.0673,-10.7103 L 16.4853,-11.5266 L 16.933,-12.332 L 17.2954,-12.3999 L 17.6578,-12.4788
 L 18.0202,-12.5686 L 18.3827,-12.6693 L 18.7296,-12.785 L 19.0452,-12.9194 L 19.3296,-13.0726 L 19.5827,-13.2444
 L 19.7906,-13.439 L 19.939,-13.6601 L 20.0281,-13.9077 L 20.0578,-14.1819 L 20.0429,-14.3694 L 19.9984,-14.5318
 L 19.9241,-14.6693 L 19.8202,-14.7818 L 19.6913,-14.8693 L 19.5421,-14.9318 L 19.3726,-14.9693 L 19.1828,-14.9818
 L 18.8398,-14.9474 L 18.5109,-14.8443 L 18.196,-14.6724 L 17.8952,-14.4317 L 17.5945,-14.1302 L 17.2797,-13.7756
 L 16.9509,-13.3678 L 16.6079,-12.9069 L 14.9557,-12.6585 L 13.3738,-12.3882 L 11.8622,-12.096 L 10.4209,-11.7819
 L 9.06163,-11.4414 L 7.79607,-11.0696 L 6.62425,-10.6665 L 5.54616,-10.2321 L 4.57275,-9.75948 L 3.71497,-9.2415
 L 2.97282,-8.67822 L 2.3463,-8.06961 L 1.84868,-7.4111 L 1.49324,-6.69792 L 1.27997,-5.93007 L 1.20888,-5.10754
 L 1.24403,-4.48412 L 1.3495,-3.91382 L 1.52528,-3.39665 L 1.77138,-2.9326 L 2.07214,-2.52324 L 2.41196,-2.17012
 L 2.7908,-1.87325 L 3.20868,-1.63264 L 3.65242,-1.4467 L 4.10867,-1.3139 L 4.57744,-1.23422 L 5.05872,-1.20766
 L 5.69228,-1.24828 L 6.31799,-1.37015 L 6.9359,-1.57327 L 7.54596,-1.85764 L 8.12563,-2.21777 L 8.65215,-2.64819
 L 9.12552,-3.14891 L 9.54576,-3.71992 L 9.89029,-4.35506 L 10.1364,-5.048 L 10.284,-5.79875 L 10.3333,-6.6073
 L 10.3184,-6.93074 L 10.2739,-7.22604 L 10.1997,-7.49324 L 10.0958,-7.7323 L 9.97321,-7.92917 L 9.84276,-8.06979
 L 9.70447,-8.15417 L 9.55836,-8.1823 L 9.44897,-8.16667 L 9.37085,-8.1198 L 9.32396,-8.04166 L 9.30833,-7.93228
 L 9.50522,-7.69009 L 9.64584,-7.41356 L 9.73021,-7.10266 L 9.75833,-6.75742 L 9.71693,-6.0426 L 9.59274,-5.37308
 L 9.38574,-4.74886 L 9.09593,-4.16992 L 8.74442,-3.64418 L 8.35226,-3.17938 L 7.91948,-2.7755 L 7.44606,-2.43256
 L 6.95311,-2.15913 L 6.46173,-1.96384 L 5.97192,-1.84666 L 5.4837,-1.8076 L 4.9978,-1.85368 L 4.54001,-1.99196
 L 4.11031,-2.22241 L 3.70872,-2.54506 L 3.36971,-2.96144 L 3.12755,-3.47314 L 2.98225,-4.08014 L 2.93382,-4.78246
 L 3.15021,-6.16673 L 3.79939,-7.41977 L 4.88136,-8.54156 L 6.39612,-9.53212 L 8.30615,-10.3945 L 10.574,-11.132
 L 13.1995,-11.7445 L 16.1829,-12.2319 L 16.0244,-11.9788 L 15.8236,-11.6445 L 15.5807,-11.2289 L 15.2955,-10.732
 L 14.9768,-10.1641 L 14.6331,-9.53531 L 14.2644,-8.84554 L 13.8706,-8.09482 L 13.4589,-7.2894 L 13.0363,-6.43553
 L 12.6027,-5.53323 L 12.1583,-4.58247 L 11.702,-3.57944 L 11.2333,-2.57013 L 10.7521,-1.55453 L 10.2584,-0.532654
 L 9.75061,0.484436 L 9.2272,1.48589 L 8.68816,2.47173 L 8.13348,3.44191 L 6.61948,5.80426 L 5.07735,7.89165
 L 3.5071,9.70406 L 1.90872,11.2415 L 0.276047,12.4664 L -1.39723,13.3414 L -3.11118,13.8664 L -4.86575,14.0414
 L -5.88443,13.993 L -6.84062,13.8476 L -7.7343,13.6054 L -8.56546,13.2663 L -9.32164,12.8374 L -9.99034,12.3258
 L -10.5716,11.7313 L -11.0653,11.0539 L -11.4591,10.3032 L -11.7403,9.48846 L -11.9091,8.60962 L -11.9653,7.66669
 L -11.9223,6.83392 L -11.7935,6.03552 L -11.5786,5.27151 L -11.2779,4.54189 L -10.8958,3.87007 L -10.4372,3.2795
 L -9.90204,2.77019 L -9.29033,2.3421 L -9.23567,2.30147 L -9.19664,2.25458 L -9.17322,2.20148 L -9.16541,2.14212
 L -9.17477,2.0874 L -9.2029,2.04831 L -9.24974,2.02484 L -9.31535,2.01703 L -9.40915,2.02719 L -9.54044,2.05766
 L -9.70921,2.10846 L -9.91547,2.17957 L -10.1451,2.27411 L -10.3841,2.3952 L -10.6325,2.54285 L -10.8904,2.71704
 L -11.3434,3.08188 L -11.7777,3.52637 L -12.1933,4.05054 L -12.5901,4.65439 L -12.9292,5.34261 L -13.1714,6.1199
 L -13.3167,6.98628 L -13.3652,7.94173 L -13.2956,8.97755 L -13.087,9.93527 L -12.7393,10.8149 L -12.2526,11.6164
 L -11.6464,12.3336 L -10.9402,12.9601 L -10.134,13.496 L -9.22786,13.9413 L -8.2428,14.2913 L -7.19989,14.5412
 L -6.09917,14.6912 L -4.94063,14.7412 z
M 17.5712,-13.1577 L 17.761,-13.36 L 17.9523,-13.5639 L 18.1453,-13.7693 L 18.332,-13.9498 L 18.5047,-14.0787
 L 18.6633,-14.1561 L 18.8078,-14.1819 L 18.939,-14.1631 L 19.0327,-14.1069 L 19.089,-14.0131 L 19.1077,-13.8818
 L 19.0858,-13.767 L 19.0202,-13.6476 L 18.9109,-13.5233 L 18.7578,-13.3944 L 18.5406,-13.2686 L 18.2391,-13.1538
 L 17.8532,-13.0499 L 17.383,-12.957 z
" stroke="black" fill="lightgray" stroke-width="0.5"/>
</g>
</svg>
