<?xml version="1.0" standalone="no"?>
<!DOCTYPE svg PUBLIC "-//W3C//DTD SVG 1.1//EN" "http://www.w3.org/Graphics/SVG/1.1/DTD/svg11.dtd">
<svg width="72mm" height="18mm" viewBox="-36 -30 72 18" xmlns="http://www.w3.org/2000/svg" version="1.1">
<title>OpenSCAD Model</title>
<path d="
M 9.52776,-12.4899 L 11.4451,-12.7258 L 13.4055,-13.1064 L 15.409,-13.6317 L 17.4556,-14.3017 L 18.4399,-14.6707
 L 19.3956,-15.0529 L 20.3224,-15.4484 L 21.2207,-15.8572 L 22.0978,-16.2726 L 22.9618,-16.6881 L 23.8124,-17.1035
 L 24.6499,-17.5188 L 25.4818,-17.9265 L 26.316,-18.3187 L 27.1522,-18.6954 L 27.9907,-19.0567 L 28.837,-19.3958
 L 29.6966,-19.7064 L 30.5694,-19.988 L 31.4554,-20.2409 L 31.7597,-20.0327 L 32.0717,-19.8322 L 32.3915,-19.6395
 L 32.719,-19.4543 L 33.0461,-19.2909 L 33.3643,-19.1627 L 33.6738,-19.07 L 33.9742,-19.0125 L 34.2588,-19.0031
 L 34.5201,-19.0545 L 34.7582,-19.1666 L 34.9731,-19.3394 L 35.0951,-19.4826 L 35.1785,-19.6289 L 35.2232,-19.7786
 L 35.2293,-19.9316 L 35.2,-20.0847 L 35.1387,-20.2344 L 35.0453,-20.3807 L 34.92,-20.5238 L 34.6531,-20.742
 L 34.3476,-20.9017 L 34.0034,-21.0028 L 33.6205,-21.0453 L 33.1947,-21.0447 L 32.7214,-21.0166 L 32.2005,-20.9607
 L 31.6321,-20.8773 L 30.2881,-21.87 L 28.9784,-22.7974 L 27.703,-23.6597 L 26.4617,-24.4567 L 25.2598,-25.1771
 L 24.102,-25.8091 L 22.9884,-26.3526 L 21.9189,-26.8078 L 20.8964,-27.1619 L 19.9236,-27.4022 L 19.0005,-27.5287
 L 18.1271,-27.5413 L 17.3096,-27.4276 L 16.554,-27.1746 L 15.8602,-26.7824 L 15.2283,-26.2511 L 14.8124,-25.7854
 L 14.4837,-25.3076 L 14.2423,-24.8176 L 14.0882,-24.3154 L 14.0114,-23.8133 L 14.002,-23.3233 L 14.0599,-22.8455
 L 14.1853,-22.3799 L 14.3676,-21.9347 L 14.5963,-21.5181 L 14.8714,-21.1303 L 15.1929,-20.7712 L 15.6697,-20.3519
 L 16.1983,-19.9957 L 16.7788,-19.7024 L 17.4113,-19.4721 L 18.0758,-19.3168 L 18.7525,-19.2489 L 19.4413,-19.2682
 L 20.1422,-19.3748 L 20.8349,-19.5803 L 21.4989,-19.8963 L 22.1342,-20.3228 L 22.7408,-20.8597 L 22.9589,-21.0989
 L 23.1363,-21.3392 L 23.2727,-21.5806 L 23.3683,-21.8231 L 23.4208,-22.049 L 23.428,-22.2407 L 23.3899,-22.3981
 L 23.3065,-22.5213 L 23.2181,-22.5876 L 23.1297,-22.6097 L 23.0413,-22.5876 L 22.9529,-22.5213 L 22.9209,-22.2108
 L 22.8248,-21.9159 L 22.6646,-21.6364 L 22.4403,-21.3724 L 21.9056,-20.8962 L 21.3444,-20.5106 L 20.7566,-20.2156
 L 20.1423,-20.0111 L 19.522,-19.8879 L 18.916,-19.8366 L 18.3244,-19.857 L 17.7472,-19.9493 L 17.2053,-20.1045
 L 16.7197,-20.3138 L 16.2905,-20.5773 L 15.9177,-20.8949 L 15.6067,-21.2711 L 15.3807,-21.6926 L 15.2399,-22.1594
 L 15.184,-22.6715 L 15.2387,-23.2056 L 15.4293,-23.7387 L 15.7558,-24.2707 L 16.2182,-24.8015 L 17.35,-25.6273
 L 18.6951,-26.0543 L 20.2534,-26.0825 L 22.0249,-25.7118 L 23.9853,-24.971 L 26.1104,-23.8889 L 28.4,-22.4655
 L 30.8542,-20.7006 L 30.5632,-20.6337 L 30.1848,-20.5393 L 29.7192,-20.4171 L 29.1662,-20.2674 L 28.5392,-20.0912
 L 27.8516,-19.8896 L 27.1031,-19.6626 L 26.2938,-19.4102 L 25.4332,-19.1318 L 24.5306,-18.8269 L 23.586,-18.4955
 L 22.5995,-18.1374 L 21.5676,-17.7508 L 20.5224,-17.3685 L 19.464,-16.9907 L 18.3924,-16.6172 L 17.3141,-16.2571
 L 16.2359,-15.919 L 15.1576,-15.6031 L 14.0794,-15.3093 L 11.3384,-14.7094 L 8.77194,-14.3239 L 6.38003,-14.1526
 L 4.16268,-14.1957 L 2.14207,-14.4841 L 1.01948,-14.8357 L 1.88639,-15.4358 L 3.15521,-16.5643 L 3.93906,-17.4188
 L 4.61133,-18.3032 L 5.17207,-19.2174 L 5.62112,-20.1614 L 5.94699,-21.117 L 6.13812,-22.066 L 6.19447,-23.0084
 L 6.11598,-23.9442 L 5.89339,-24.8551 L 5.51726,-25.7229 L 4.98755,-26.5477 L 4.30433,-27.3293 L 3.59443,-27.9706
 L 2.87906,-28.4805 L 2.80094,-28.5215 L 2.80614,-28.5534 L 2.78962,-28.6031 L 2.74874,-28.655 L 2.67523,-28.7142
 L 2.56085,-28.7855 L 2.40559,-28.8689 L 2.20946,-28.9644 L 1.98024,-29.06 L 1.72562,-29.1433 L 1.44557,-29.2146
 L 1.14003,-29.2738 L 0.561734,-29.3361 L 0,-29.3296 L -0.561734,-29.3361 L -1.14003,-29.2738 L -1.44557,-29.2146
 L -1.72562,-29.1433 L -1.98024,-29.06 L -2.20946,-28.9644 L -2.40559,-28.8689 L -2.56085,-28.7855 L -2.67523,-28.7142
 L -2.74874,-28.655 L -2.78962,-28.6031 L -2.80614,-28.5534 L -2.80094,-28.5215 L -2.87906,-28.4805 L -3.59443,-27.9706
 L -4.30433,-27.3293 L -4.98755,-26.5477 L -5.51726,-25.7229 L -5.89339,-24.8551 L -6.11598,-23.9442 L -6.19447,-23.0084
 L -6.13812,-22.066 L -5.94699,-21.117 L -5.62112,-20.1614 L -5.17207,-19.2174 L -4.61133,-18.3032 L -3.93906,-17.4188
 L -3.15521,-16.5643 L -1.88639,-15.4358 L -1.01948,-14.8357 L -2.14207,-14.4841 L -4.16268,-14.1957 L -6.38003,-14.1526
 L -8.77194,-14.3239 L -11.3384,-14.7094 L -14.0794,-15.3093 L -15.1576,-15.6031 L -16.2359,-15.919 L -17.3141,-16.2571
 L -18.3924,-16.6172 L -19.464,-16.9907 L -20.5224,-17.3685 L -21.5676,-17.7508 L -22.5995,-18.1374 L -23.586,-18.4955
 L -24.5306,-18.8269 L -25.4332,-19.1318 L -26.2938,-19.4102 L -27.1031,-19.6626 L -27.8516,-19.8896 L -28.5392,-20.0912
 L -29.1662,-20.2674 L -29.7192,-20.4171 L -30.1848,-20.5393 L -30.5632,-20.6337 L -30.8542,-20.7006 L -28.4,-22.4655
 L -26.1104,-23.8889 L -23.9853,-24.971 L -22.0249,-25.7118 L -20.2534,-26.0825 L -18.6951,-26.0543 L -17.35,-25.6273
 L -16.2182,-24.8015 L -15.7558,-24.2707 L -15.4293,-23.7387 L -15.2387,-23.2056 L -15.184,-22.6715 L -15.2399,-22.1594
 L -15.3807,-21.6926 L -15.6067,-21.2711 L -15.9177,-20.8949 L -16.2905,-20.5773 L -16.7197,-20.3138 L -17.2053,-20.1045
 L -17.7472,-19.9493 L -18.3244,-19.857 L -18.916,-19.8366 L -19.522,-19.8879 L -20.1423,-20.0111 L -20.7566,-20.2156
 L -21.3444,-20.5106 L -21.9056,-20.8962 L -22.4403,-21.3724 L -22.6646,-21.6364 L -22.8248,-21.9159 L -22.9209,-22.2108
 L -22.9529,-22.5213 L -23.0413,-22.5876 L -23.1297,-22.6097 L -23.2181,-22.5876 L -23.3065,-22.5213 L -23.3899,-22.3981
 L -23.428,-22.2407 L -23.4208,-22.049 L -23.3683,-21.8231 L -23.2727,-21.5806 L -23.1363,-21.3392 L -22.9589,-21.0989
 L -22.7408,-20.8597 L -22.1342,-20.3228 L -21.4989,-19.8963 L -20.8349,-19.5803 L -20.1422,-19.3748 L -19.4413,-19.2682
 L -18.7525,-19.2489 L -18.0758,-19.3168 L -17.4113,-19.4721 L -16.7788,-19.7024 L -16.1983,-19.9957 L -15.6697,-20.3519
 L -15.1929,-20.7712 L -14.8714,-21.1303 L -14.5963,-21.5181 L -14.3676,-21.9347 L -14.1853,-22.3799 L -14.0599,-22.8455
 L -14.002,-23.3233 L -14.0114,-23.8133 L -14.0882,-24.3154 L -14.2423,-24.8176 L -14.4837,-25.3076 L -14.8124,-25.7854
 L -15.2283,-26.2511 L -15.8602,-26.7824 L -16.554,-27.1746 L -17.3096,-27.4276 L -18.1271,-27.5413 L -19.0005,-27.5287
 L -19.9236,-27.4022 L -20.8964,-27.1619 L -21.9189,-26.8078 L -22.9884,-26.3526 L -24.102,-25.8091 L -25.2598,-25.1771
 L -26.4617,-24.4567 L -27.703,-23.6597 L -28.9784,-22.7974 L -30.2881,-21.87 L -31.6321,-20.8773 L -32.2005,-20.9607
 L -32.7214,-21.0166 L -33.1947,-21.0447 L -33.6205,-21.0453 L -34.0034,-21.0028 L -34.3476,-20.9017 L -34.6531,-20.742
 L -34.92,-20.5238 L -35.0453,-20.3807 L -35.1387,-20.2344 L -35.2,-20.0847 L -35.2293,-19.9316 L -35.2232,-19.7786
 L -35.1785,-19.6289 L -35.0951,-19.4826 L -34.9731,-19.3394 L -34.7582,-19.1666 L -34.5201,-19.0545 L -34.2588,-19.0031
 L -33.9742,-19.0125 L -33.6738,-19.07 L -33.3643,-19.1627 L -33.0461,-19.2909 L -32.719,-19.4543 L -32.3915,-19.6395
 L -32.0717,-19.8322 L -31.7597,-20.0327 L -31.4554,-20.2409 L -30.5694,-19.988 L -29.6966,-19.7064 L -28.837,-19.3958
 L -27.9907,-19.0567 L -27.1522,-18.6954 L -26.316,-18.3187 L -25.4818,-17.9265 L -24.6499,-17.5188 L -23.8124,-17.1035
 L -22.9618,-16.6881 L -22.0978,-16.2726 L -21.2207,-15.8572 L -20.3224,-15.4484 L -19.3956,-15.0529 L -18.4399,-14.6707
 L -17.4556,-14.3017 L -15.409,-13.6317 L -13.4055,-13.1064 L -11.4451,-12.7258 L -9.52776,-12.4899 L -7.66727,-12.4081
 L -5.87754,-12.4899 L -4.15845,-12.7351 L -2.5101,-13.1439 L -0.946264,-13.7256 L 0,-14.2188 L 0.946264,-13.7256
 L 2.5101,-13.1439 L 4.15845,-12.7351 L 5.87754,-12.4899 L 7.66727,-12.4081 z
M -1.24301,-15.8892 L -2.60743,-17.0062 L -3.29352,-17.7607 L -3.86683,-18.5396 L -4.3275,-19.3428 L -4.67544,-20.1703
 L -4.90686,-21.0083 L -5.01795,-21.8429 L -5.00858,-22.6743 L -4.87869,-23.5024 L -4.62632,-24.3117 L -4.24905,-25.0866
 L -3.74698,-25.8274 L -3.11997,-26.5339 L -2.5007,-27.0924 L -1.84507,-27.5658 L -1.15288,-27.9541 L -0.424334,-28.2574
 L 0,-28.3741 L 0.424334,-28.2574 L 1.15288,-27.9541 L 1.84507,-27.5658 L 2.5007,-27.0924 L 3.11997,-26.5339
 L 3.74698,-25.8274 L 4.24905,-25.0866 L 4.62632,-24.3117 L 4.87869,-23.5024 L 5.00858,-22.6743 L 5.01795,-21.8429
 L 4.90686,-21.0083 L 4.67544,-20.1703 L 4.3275,-19.3428 L 3.86683,-18.5396 L 3.29352,-17.7607 L 2.60743,-17.0062
 L 1.24301,-15.8892 L 0,-15.2292 z
M -33.8616,-19.6953 L -33.9924,-19.7334 L -34.089,-19.7991 L -34.1687,-19.9051 L -34.1952,-20.0113 L -34.1687,-20.1173
 L -34.0892,-20.2233 L -33.9688,-20.3073 L -33.8019,-20.3647 L -33.5886,-20.3956 L -33.329,-20.4 L -33.0473,-20.3913
 L -32.7678,-20.3824 L -32.4906,-20.3735 L -32.2156,-20.3647 L -32.6137,-20.0979 L -32.9601,-19.8985 L -33.2544,-19.7665
 L -33.497,-19.7018 L -33.6964,-19.6847 z
M 33.497,-19.7018 L 33.2544,-19.7665 L 32.9601,-19.8985 L 32.6137,-20.0979 L 32.2156,-20.3647 L 32.4906,-20.3735
 L 32.7678,-20.3824 L 33.0473,-20.3913 L 33.329,-20.4 L 33.5886,-20.3956 L 33.8019,-20.3647 L 33.9688,-20.3073
 L 34.0892,-20.2233 L 34.1687,-20.1173 L 34.1952,-20.0113 L 34.1687,-19.9051 L 34.089,-19.7991 L 33.9924,-19.7334
 L 33.8616,-19.6953 L 33.6964,-19.6847 z
" stroke="#000000" fill="none" stroke-width="0.35"/>
</svg>
