<?xml version="1.0" encoding="UTF-8" standalone="no"?>
<!-- Created with Inkscape (http://www.inkscape.org/) -->

<svg
   width="5.3833647mm"
   height="16.025761mm"
   viewBox="0 0 5.3833647 16.025761"
   version="1.1"
   id="svg1"
   xml:space="preserve"
   xmlns="http://www.w3.org/2000/svg"
   xmlns:svg="http://www.w3.org/2000/svg"><defs
     id="defs1" /><g
     id="layer1"
     transform="translate(-102.34791,-6.2746248)"><g
       id="g22"
       transform="matrix(0.26458333,0,0,0.26458333,105.04571,-274.83845)"><path
         style="baseline-shift:baseline;display:inline;overflow:visible;opacity:1;vector-effect:none;enable-background:accumulate;stop-color:#000000;stop-opacity:1"
         d="m -0.08789062,1062.5 c -2.22310708,0.1598 -4.37651558,1.0526 -6.02929688,2.5059 -2.8305044,2.4887 -4.1036535,6.5201 -4.0761715,10.2695 0.01655,2.2574 0.5105258,4.4054 1.2656246,6.4512 0.5967541,1.6168 1.3606611,3.1841 2.3125,4.6289 0.2301264,0.3493 0.4690483,0.6862 0.703125,1.0195 2.4652035,3.5104 4.8715554,7.0661 7.2792969,10.623 l 0.828125,-0.5605 c -2.40773653,-3.5569 -4.817276,-7.1169 -7.2890625,-10.6367 -0.2346593,-0.3341 -0.4668813,-0.6642 -0.6855469,-0.9961 -0.9043491,-1.3727 -1.6375735,-2.8703 -2.2109375,-4.4238 -0.7255072,-1.9657 -1.1876152,-3.9973 -1.203125,-6.1133 -0.02576,-3.5146 1.2003946,-7.2801 3.7363282,-9.5098 1.4807747,-1.302 3.4389633,-2.1158 5.4414062,-2.2598 2.2057955,-0.1585 4.482541,0.4936 6.1953125,1.877 1.7857295,1.4424 2.9829373,3.7041 2.9667969,6.0039 -0.01319,1.8793 -0.842833,3.8177 -2.265625,4.8848 -0.8855903,0.6641 -2.0314062,1.0201 -3.1425781,0.9687 -1.0758435,-0.05 -2.1405737,-0.4801 -2.9257813,-1.2129 -0.67689948,-0.6317 -1.14228195,-1.4847 -1.18945313,-2.3711 -0.0442613,-0.8317 0.29215973,-1.739 0.87500001,-2.2285 0.40301699,-0.3384 0.96504692,-0.5241 1.52343752,-0.5019 0.5979009,0.024 1.1979088,0.2921 1.5449219,0.709 0.2118901,0.2545 0.3441293,0.5758 0.3613281,0.9003 0.027959,0.5276 -0.2783113,1.1581 -0.6953125,1.4375 -0.215281,0.1436 -0.4717128,0.2178 -0.7382813,0.2071 -0.3607493,-0.014 -0.743814,-0.2055 -0.9023437,-0.4395 -0.087111,-0.1285 -0.1449437,-0.3153 -0.1542969,-0.5058 -0.00378,-0.077 -9.682e-4,-0.1682 0.00391,-0.2754 l -0.99804682,-0.045 c -0.004876,0.1072 -0.0107404,0.2298 -0.003906,0.3691 0.0169328,0.3449 0.1107074,0.7045 0.32421874,1.0195 0.38822828,0.573 1.04597248,0.8511 1.68945318,0.877 0.4769375,0.019 0.9435494,-0.1147 1.3339844,-0.375 0.7599433,-0.5076 1.1866537,-1.417 1.1386718,-2.3223 -0.029481,-0.5563 -0.248673,-1.0741 -0.5917968,-1.4863 -0.562093,-0.6752 -1.4161985,-1.0336 -2.2734375,-1.0684 -0.7994094,-0.032 -1.59632432,0.2216 -2.20703132,0.7344 -0.88258568,0.7412 -1.29019138,1.9246 -1.23046868,3.0469 0.063651,1.196 0.67184991,2.2687 1.50781242,3.0488 0.96970248,0.905 2.25116438,1.4202 3.56054698,1.4805 1.352662,0.063 2.7121328,-0.3604 3.7890624,-1.168 1.7303601,-1.2977 2.6508342,-3.5127 2.6660152,-5.6758 0.01858,-2.647 -1.3268397,-5.1666 -3.3378902,-6.791 -1.9288704,-1.558 -4.4476479,-2.2717 -6.89648437,-2.0957 z"
         id="path14" /><path
         style="baseline-shift:baseline;display:inline;overflow:visible;opacity:1;vector-effect:none;enable-background:accumulate;stop-color:#000000;stop-opacity:1"
         d="m 0.12304687,1064.2734 c -2.00931967,0.1259 -3.93907717,0.9924 -5.36718747,2.3555 -2.3279898,2.222 -3.24273,5.6665 -3.1640625,8.8496 0.050075,2.0262 0.5097406,3.9469 1.2089844,5.7695 0.5303106,1.3823 1.1996021,2.7145 1.9785156,3.9708 0.3045317,0.4912 0.622699,0.9654 0.9375,1.4355 1.5070111,2.2507 3.0172044,4.5032 4.56249998,6.7344 l 0.82226562,-0.5684 c -1.53945439,-2.2228 -3.0458435,-4.4721 -4.5527344,-6.7226 -0.314777,-0.4701 -0.6276736,-0.9349 -0.9199218,-1.4063 -0.7475346,-1.2056 -1.388258,-2.4812 -1.8945313,-3.8008 -0.6675422,-1.74 -1.0958447,-3.5465 -1.1425781,-5.4375 -0.073419,-2.9707 0.8106805,-6.1499 2.8554687,-8.1015 1.2543917,-1.1973 2.976727,-1.9698 4.73828127,-2.0801 1.90934453,-0.1195 3.89422373,0.5386 5.26953123,1.8398 1.1938797,1.1295 1.9491298,2.7633 1.90625,4.3867 -0.030383,1.1503 -0.4634779,2.3055 -1.2519531,3.0489 -0.5729142,0.5401 -1.3539398,0.8851 -2.1289062,0.9004 -0.7950151,0.016 -1.6193967,-0.314 -2.1269532,-0.9102 -0.3424576,-0.4022 -0.5307994,-0.9187 -0.4570312,-1.3516 0.043838,-0.2571 0.1848875,-0.5028 0.3535156,-0.623 0.1160279,-0.083 0.2720108,-0.1286 0.4101563,-0.1211 0.1546428,0.01 0.322775,0.091 0.4121093,0.1953 0.066982,0.079 0.1077114,0.1873 0.109375,0.2774 0.00164,0.089 -0.032784,0.1906 -0.089844,0.2578 -0.052281,0.062 -0.1392357,0.1061 -0.1894531,0.1133 l -0.070312,0.01 -0.066406,0.029 c 0.092791,-0.042 0.162758,-0.033 0.140625,-0.033 v 1 c 0.013742,0 0.1018643,-0.02 0.1699219,-0.033 0.311725,-0.054 0.5827232,-0.2086 0.7773437,-0.4375 0.2215027,-0.2606 0.3343335,-0.5878 0.328125,-0.9238 -0.0063,-0.3408 -0.1334867,-0.6592 -0.3476562,-0.9102 -0.2854817,-0.3345 -0.6917393,-0.5203 -1.1152344,-0.5449 -0.3795976,-0.022 -0.7474424,0.092 -1.0488281,0.3066 -0.43593788,0.3107 -0.67742331,0.7865 -0.75976565,1.2696 -0.13851986,0.8127 0.19246733,1.5911 0.68359375,2.1679 0.7278355,0.855 1.827185,1.2835 2.90625,1.2618 1.0524676,-0.021 2.0519212,-0.4716 2.796875,-1.1739 1.0254628,-0.9668 1.5280263,-2.3689 1.5644531,-3.748 0.051408,-1.9464 -0.8303256,-3.8271 -2.21875,-5.1406 -1.5993764,-1.5132 -3.8416257,-2.2477 -6.01953123,-2.1114 z"
         id="path15" /><path
         style="baseline-shift:baseline;display:inline;overflow:visible;opacity:1;vector-effect:none;enable-background:accumulate;stop-color:#000000;stop-opacity:1"
         d="m 7.8730469,1102.7988 -0.8769532,0.4805 c 0.3593086,0.6579 0.7127967,1.3035 1.0058594,1.9609 0.697753,1.5653 1.0920243,3.2607 1.1425782,5.0215 0.1006045,3.5042 -1.1823605,7.268 -3.7363282,9.5 -1.4913043,1.3032 -3.441728,2.1157 -5.44140622,2.2598 -2.20272538,0.1587 -4.48184868,-0.4935 -6.19531248,-1.877 -1.7864444,-1.4423 -2.9831152,-3.7042 -2.9667969,-6.0039 0.013336,-1.8793 0.8428842,-3.8177 2.265625,-4.8847 0.885564,-0.6642 2.0313997,-1.0202 3.1425781,-0.9688 1.0759055,0.05 2.138636,0.4801 2.92382815,1.2129 0.67692675,0.6318 1.14423509,1.4847 1.19140625,2.3711 0.0442613,0.8317 -0.29220032,1.7392 -0.875,2.2285 -0.40301699,0.3384 -0.9650469,0.5242 -1.5234375,0.502 -0.5979009,-0.024 -1.1979088,-0.2941 -1.5449219,-0.711 -0.2118353,-0.2544 -0.3441294,-0.5739 -0.3613281,-0.8984 -0.02799,-0.5281 0.2776058,-1.1605 0.6953125,-1.4395 0.215281,-0.1435 0.4717128,-0.2158 0.7382812,-0.205 0.3606111,0.014 0.7438101,0.2035 0.9023438,0.4375 0.087228,0.1287 0.1449415,0.3171 0.1542969,0.5078 0.00378,0.077 -9.843e-4,0.1682 -0.00586,0.2754 l 1,0.045 c 0.004875,-0.1072 0.0107397,-0.2299 0.003906,-0.3692 -0.0169306,-0.3449 -0.11082475,-0.7045 -0.32421875,-1.0195 -0.38822435,-0.5729 -1.04583425,-0.8512 -1.68945315,-0.8769 -0.4769376,-0.019 -0.9435494,0.1127 -1.3339844,0.373 -0.7599432,0.5076 -1.1886068,1.4189 -1.1406249,2.3242 0.029481,0.5563 0.2486182,1.0742 0.5917969,1.4864 0.5620929,0.6751 1.4161983,1.0336 2.2734374,1.0683 0.7994095,0.032 1.59632427,-0.2216 2.20703127,-0.7344 0.88262633,-0.741 1.29019153,-1.9246 1.23046883,-3.0468 -0.063651,-1.1961 -0.6699262,-2.2687 -1.50585945,-3.0489 -0.96924285,-0.9045 -2.25188155,-1.4216 -3.56054685,-1.4824 h -0.00195 c -1.352024,-0.062 -2.7126662,0.3627 -3.7890625,1.1699 -1.7303472,1.2978 -2.6487143,3.5128 -2.6640633,5.6758 -0.01878,2.6469 1.3259558,5.1646 3.3378914,6.7891 1.9297142,1.5581 4.4482887,2.272 6.89453122,2.0957 2.22072978,-0.16 4.36868928,-1.0528 6.02929688,-2.5039 2.8439064,-2.4854 4.1862245,-6.5161 4.0781245,-10.2813 -0.05432,-1.892 -0.4805271,-3.7161 -1.2304682,-5.3984 -0.3149753,-0.7066 -0.6816862,-1.3773 -1.0410156,-2.0352 z"
         id="path16" /><path
         style="baseline-shift:baseline;display:inline;overflow:visible;opacity:1;vector-effect:none;enable-background:accumulate;stop-color:#000000;stop-opacity:1"
         d="m 4.4472656,1101.0195 -0.7441406,0.668 c 0.201384,0.2244 0.3992082,0.4439 0.5839844,0.666 0.6737923,0.8101 1.2419032,1.7201 1.7109375,2.6797 0.7718155,1.5792 1.2648554,3.2713 1.3613281,5.0469 0.1598901,2.9427 -0.7870822,6.1285 -2.8535156,8.0859 -1.2676622,1.2008 -2.9820556,1.9721 -4.7402344,2.082 -1.9056726,0.1192 -3.893524,-0.5389 -5.2695312,-1.8398 -1.1945012,-1.1294 -1.9512342,-2.7632 -1.9082032,-4.3867 0.030492,-1.1505 0.4635398,-2.3056 1.2519532,-3.0488 0.5728809,-0.5402 1.3558859,-0.8852 2.1308593,-0.9004 0.7950565,-0.016 1.6174475,0.314 2.125,0.9101 0.3424972,0.4023 0.5327409,0.9189 0.4589844,1.3516 -0.04384,0.2572 -0.1869002,0.5029 -0.3554687,0.623 -0.1165814,0.083 -0.2715499,0.1291 -0.4101563,0.1211 -0.1544065,-0.01 -0.3227264,-0.091 -0.4121094,-0.1953 -0.066982,-0.079 -0.1077134,-0.1874 -0.109375,-0.2773 -0.00164,-0.089 0.03486,-0.1909 0.091797,-0.2578 0.052281,-0.062 0.137284,-0.1062 0.1875,-0.1133 l 0.072266,-0.01 0.064453,-0.031 c -0.092782,0.042 -0.1627579,0.035 -0.140625,0.035 v -1 c -0.013742,0 -0.1018659,0.021 -0.1699218,0.033 -0.3116934,0.054 -0.5807849,0.2087 -0.7753907,0.4375 -0.221625,0.2607 -0.3362843,0.5878 -0.3300781,0.9238 0.0063,0.3408 0.1354399,0.6573 0.3496094,0.9083 0.285433,0.3344 0.6895497,0.5204 1.1132812,0.5449 0.3795976,0.022 0.7474876,-0.09 1.0488282,-0.3047 0.43599739,-0.3107 0.67937889,-0.7865 0.76171872,-1.2695 0.13853146,-0.8127 -0.19250888,-1.5911 -0.68359372,-2.168 -0.7278375,-0.8549 -1.8272165,-1.2834 -2.90625,-1.2617 -1.0524726,0.021 -2.051928,0.4714 -2.796875,1.1738 -1.0254726,0.9667 -1.5298527,2.3689 -1.5664063,3.748 -0.051585,1.9463 0.8314143,3.8271 2.2207032,5.1407 1.6003867,1.513 3.8448798,2.2473 6.0195312,2.1113 2.0063052,-0.1255 3.9272785,-0.9915 5.3652344,-2.3535 2.3440246,-2.2204 3.3374903,-5.6753 3.1640625,-8.8672 -0.1046413,-1.9259 -0.639133,-3.7502 -1.4609375,-5.4316 -0.4994158,-1.0218 -1.1095213,-1.9986 -1.8417969,-2.879 -0.2007538,-0.2413 -0.4060379,-0.4709 -0.6074219,-0.6953 z"
         id="path17" /><path
         style="baseline-shift:baseline;display:inline;overflow:visible;opacity:1;vector-effect:none;enable-background:accumulate;stop-color:#000000;stop-opacity:1"
         d="m -1.6796875,1095.6133 c -1.0123585,-0.2066 -2.0786679,-0.1657 -3.0898437,0.082 -0.7975225,0.1954 -1.578848,0.5238 -2.2460938,1.0508 -0.5232864,0.4132 -0.9748796,0.9457 -1.2539063,1.582 -0.2980802,0.6799 -0.3862148,1.4509 -0.2324218,2.1914 0.1265585,0.6093 0.4139633,1.1973 0.8828125,1.6387 0.4646779,0.4375 1.0564159,0.6823 1.6484375,0.793 h 0.00195 c 0.4270843,0.079 0.8829652,0.094 1.3339844,-0.025 0.678427,-0.1795 1.2504533,-0.6281 1.640625,-1.1797 0.1926803,-0.2725 0.334025,-0.5642 0.4394531,-0.8574 0.041763,-0.1162 0.079749,-0.2364 0.1113281,-0.3614 v 0 c 0.021495,-0.085 0.067043,-0.2322 0.027344,-0.4375 -0.059828,-0.3096 -0.2472942,-0.5232 -0.5390625,-0.6289 H -2.9668 -2.980472 c -0.2045008,-0.062 -0.3903442,-0.042 -0.5546875,0.016 -0.3778353,0.1313 -0.5306697,0.3955 -0.6269531,0.4941 -0.1375445,0.141 -0.301459,0.2415 -0.5097656,0.3243 -0.2915222,0.1155 -0.5833866,0.1433 -0.7578125,0.072 -0.1095961,-0.045 -0.2234079,-0.1498 -0.2675781,-0.2383 -0.051043,-0.1022 -0.066683,-0.2883 -0.025391,-0.5039 0.067965,-0.3549 0.2485743,-0.6816 0.5,-0.9238 0.2733809,-0.2634 0.6618803,-0.453 1.0878906,-0.5742 0.5939138,-0.1685 1.2236161,-0.1975 1.8457031,-0.1152 0.7133704,0.094 1.41980309,0.3358 2.08203125,0.666 1.44388535,0.7198 2.67503825,1.8646 3.93945315,3.0488 l 0.6835937,-0.7305 c -1.2644151,-1.1842 -2.5608917,-2.4088 -4.17773435,-3.2148 -0.74159784,-0.3698 -1.54887085,-0.6499 -2.39648435,-0.7617 -0.7396931,-0.098 -1.5076358,-0.066 -2.25,0.1445 -0.5330138,0.1516 -1.0735555,0.4 -1.5078125,0.8184 -0.3993664,0.3847 -0.6810214,0.8908 -0.7890625,1.455 -0.065648,0.3428 -0.082861,0.7478 0.1113281,1.1368 0.1679758,0.3365 0.4498443,0.582 0.7851563,0.7187 0.5347121,0.2179 1.0754835,0.1021 1.5058593,-0.068 0.253559,-0.1007 0.4849808,-0.2689 0.703125,-0.457 -0.064118,0.1418 -0.1233407,0.2882 -0.2109375,0.4121 -0.2661823,0.3764 -0.6764851,0.6823 -1.0800781,0.7891 -0.2676748,0.07 -0.5747814,0.068 -0.8945312,0.01 -0.4455884,-0.083 -0.8617094,-0.2672 -1.1484375,-0.5372 -0.2895869,-0.2726 -0.4995263,-0.6824 -0.5898438,-1.1171 -0.109769,-0.5286 -0.044722,-1.0945 0.1699219,-1.584 0.2009294,-0.4583 0.5432876,-0.8725 0.9570312,-1.1992 0.5275402,-0.4167 1.1714977,-0.6958 1.8632813,-0.8653 0.8770121,-0.2148 1.8036214,-0.2478 2.6542969,-0.074 1.15701523,0.2355 2.25781882,0.8761 3.4042968,1.5527 l 0.5097657,-0.8613 c -1.14647805,-0.6766 -2.33831908,-1.3898 -3.7148438,-1.6699 z"
         id="path18" /><path
         style="baseline-shift:baseline;display:inline;overflow:visible;opacity:1;vector-effect:none;enable-background:accumulate;stop-color:#000000;stop-opacity:1"
         d="m 3.4199219,1096.1074 -0.8125,0.584 c 0.2584698,0.3585 0.5198499,0.7175 0.78125,1.0742 0.5767142,0.7868 1.1543551,1.5607 1.6855468,2.3535 0.6820585,1.0179 1.3018983,2.0886 1.9277344,3.17 l 0.8652344,-0.5 c -0.6258359,-1.0814 -1.2564131,-2.1723 -1.9628906,-3.2266 -0.5502123,-0.8212 -1.1358206,-1.6067 -1.7089844,-2.3887 -0.2597939,-0.3545 -0.5183544,-0.7099 -0.7753906,-1.0664 z"
         id="path19" /><path
         style="baseline-shift:baseline;display:inline;overflow:visible;opacity:1;vector-effect:none;enable-background:accumulate;stop-color:#000000;stop-opacity:1"
         d="m -2.4492188,1111.2285 -0.00977,0.7051 -0.070312,-0.1621 c -0.057827,0.025 -0.1539148,0.062 -0.265625,0.1387 h -0.00195 c -0.099991,0.07 -0.243654,0.1756 -0.3164063,0.4082 -0.094539,0.3048 0.00496,0.5326 0.1582032,0.7149 0.2172819,0.2582 0.5161205,0.3094 0.7460937,0.2968 h 0.00586 0.00586 c 0.2253502,-0.017 0.4750388,-0.097 0.6699219,-0.3066 0.3308305,-0.358 0.3408706,-0.8142 0.1386718,-1.207 -0.1604337,-0.3119 -0.4414083,-0.499 -0.7519531,-0.5625 h -0.00195 -0.00195 c -0.1297438,-0.026 -0.2325155,-0.024 -0.3046875,-0.025 z m 0.1289063,1.0195 c 0.018484,0.011 0.040557,0.025 0.042969,0.029 0.00373,0.01 -0.00289,0.057 0.013672,0.057 -0.022599,0 0.016789,-0.012 0.074219,0.057 0.04073,0.049 0.076776,0.08 0.03125,0.2266 v 0 z"
         id="path20" /><path
         style="baseline-shift:baseline;display:inline;overflow:visible;opacity:1;vector-effect:none;enable-background:accumulate;stop-color:#000000;stop-opacity:1"
         d="m 5.7070312,1083.4922 c -0.7544375,-0.072 -1.5047318,0.043 -2.2011718,0.2988 -0.9536297,0.3503 -1.8168623,0.9646 -2.4375,1.7754 -0.6490731,0.8481 -1.00082189,1.8716 -1.15820315,2.8867 -0.16976904,1.095 -0.11288207,2.1823 0.03320313,3.2324 0.07147113,0.5138 0.16498941,1.0166 0.25585937,1.5118 l 0.98242185,-0.1797 c -0.090874,-0.4952 -0.180544,-0.9835 -0.24804685,-1.4688 -0.13797881,-0.9918 -0.18418521,-1.9821 -0.0351563,-2.9433 0.13815475,-0.8911 0.44529775,-1.7554 0.96289055,-2.4317 0.4949084,-0.6465 1.2101702,-1.1588 1.9902345,-1.4453 0.569726,-0.2092 1.167607,-0.2983 1.7597655,-0.2422 0.6831051,0.065 1.3555228,0.3279 1.826172,0.7715 0.3408249,0.3213 0.5884366,0.751 0.6679688,1.1817 0.078462,0.4248 0.00444,0.896 -0.2070313,1.3085 -0.2497599,0.4873 -0.6980143,0.8912 -1.1640625,1.0391 -0.2636486,0.084 -0.5942634,0.06 -0.921875,0.033 0.3975267,-0.162 0.8226412,-0.3764 1.1542969,-0.7637 h 0.00195 c 0.2146147,-0.2507 0.4008833,-0.5754 0.4277344,-0.9726 0.024692,-0.3652 -0.088852,-0.7095 -0.296875,-0.9902 -0.2828071,-0.3814 -0.6831616,-0.5609 -1.03125,-0.6778 -0.4246671,-0.1425 -0.8677757,-0.2088 -1.3144532,-0.1855 -0.6389759,0.033 -1.2709321,0.2439 -1.8027343,0.6152 -0.6971919,0.4868 -1.1718371,1.2127 -1.4375,1.9766 -0.2771927,0.7969 -0.3169928,1.6164 -0.2949219,2.3925 0.03192,1.1225 0.2001493,2.2218 0.4492187,3.293 0.2415277,1.0387 0.5576176,2.0454 0.8691407,3.041 l 0.953125,-0.2988 c -0.3115229,-0.9956 -0.6174279,-1.9786 -0.8476563,-2.9687 -0.2374225,-1.0212 -0.3942277,-2.0548 -0.4238281,-3.0958 -0.020467,-0.7197 0.021914,-1.413 0.2382813,-2.0351 0.207385,-0.5963 0.5814701,-1.1458 1.0664062,-1.4844 0.3702278,-0.2585 0.834727,-0.4144 1.283203,-0.4375 0.3142247,-0.016 0.6272905,0.029 0.9433595,0.1348 0.2589816,0.087 0.455662,0.2031 0.546875,0.3262 0.067168,0.091 0.1080141,0.2307 0.1015625,0.3261 -0.00702,0.1038 -0.071958,0.2534 -0.1894531,0.3907 -0.1912704,0.2233 -0.489274,0.394 -0.8242188,0.5253 -0.1090134,0.043 -0.1999833,0.074 -0.2929687,0.094 h -0.00195 -0.00195 c -0.073302,0.016 -0.2772119,0.012 -0.5097656,0.2109 -0.150015,0.1291 -0.2254633,0.2851 -0.2617188,0.4414 -0.040995,0.1759 -0.037914,0.3716 0.0625,0.5684 0.119389,0.2344 0.2988601,0.3325 0.4257813,0.3965 0.2301969,0.1163 0.4496788,0.1526 0.6269531,0.1777 0.4997641,0.072 1.0565544,0.094 1.6054688,-0.08 0.7707397,-0.2446 1.3878879,-0.8307 1.75,-1.5371 0.3065978,-0.5981 0.425026,-1.2831 0.3027344,-1.9453 -0.1239559,-0.6712 -0.483452,-1.2728 -0.9667969,-1.7285 -0.667621,-0.6293 -1.5464188,-0.9542 -2.4160158,-1.0371 z"
         id="path21" /><path
         style="baseline-shift:baseline;display:inline;overflow:visible;opacity:1;vector-effect:none;enable-background:accumulate;stop-color:#000000;stop-opacity:1"
         d="m 2.1582031,1072.1855 h -0.00586 -0.00391 c -0.2253503,0.017 -0.4750388,0.095 -0.6699219,0.3047 v 0 h -0.00195 c -0.3307587,0.358 -0.3408397,0.8123 -0.1386719,1.2051 0.1603948,0.3118 0.4429437,0.501 0.7539063,0.5645 h 0.00195 0.00195 c 0.1297439,0.026 0.2325156,0.026 0.3046875,0.027 l 0.00977,-0.7012 0.068359,0.1582 c 0.057498,-0.025 0.1547296,-0.064 0.265625,-0.1406 h 0.00195 c 0.1074114,-0.073 0.244887,-0.1795 0.3164062,-0.4082 v 0 c 0.094504,-0.3047 -0.0035,-0.531 -0.15625,-0.7129 -0.2172819,-0.2583 -0.5178146,-0.3116 -0.7480469,-0.2989 z m -0.048828,0.7149 0.1621094,0.3711 c -0.018993,-0.011 -0.042408,-0.024 -0.044922,-0.029 -0.00365,-0.01 0.0024,-0.053 -0.011719,-0.057 h -0.00195 c 0.02234,0 -0.014836,0.01 -0.072266,-0.059 -0.040232,-0.048 -0.078693,-0.078 -0.033203,-0.2247 z m 0.1035156,0.2715 h -0.00195 c -0.00434,0 0.00473,-6e-4 0.00195,0 -0.00179,0 0.00218,-0.01 0,0 z"
         id="path22" /></g></g></svg>
