<?xml version="1.0" encoding="UTF-8" standalone="no"?>
<!-- Created with Inkscape (http://www.inkscape.org/) -->

<svg
   width="9.3022337mm"
   height="28.258968mm"
   viewBox="0 0 9.3022337 28.258968"
   version="1.1"
   id="svg1"
   xml:space="preserve"
   sodipodi:docname="LeftS-CenterfromPNG.svg"
   inkscape:version="1.4.3 (0d15f75042, 2025-12-25)"
   inkscape:export-filename="LeftS.svg"
   inkscape:export-xdpi="96"
   inkscape:export-ydpi="96"
   xmlns:inkscape="http://www.inkscape.org/namespaces/inkscape"
   xmlns:sodipodi="http://sodipodi.sourceforge.net/DTD/sodipodi-0.dtd"
   xmlns="http://www.w3.org/2000/svg"
   xmlns:svg="http://www.w3.org/2000/svg"><sodipodi:namedview
     id="namedview1"
     pagecolor="#ffffff"
     bordercolor="#000000"
     borderopacity="0.25"
     inkscape:showpageshadow="2"
     inkscape:pageopacity="0.0"
     inkscape:pagecheckerboard="0"
     inkscape:deskcolor="#d1d1d1"
     inkscape:document-units="mm"
     inkscape:zoom="4.0820315"
     inkscape:cx="17.515789"
     inkscape:cy="53.404782"
     inkscape:window-width="1920"
     inkscape:window-height="1008"
     inkscape:window-x="0"
     inkscape:window-y="0"
     inkscape:window-maximized="1"
     inkscape:current-layer="layer1" /><defs
     id="defs1" /><g
     inkscape:label="Layer 1"
     inkscape:groupmode="layer"
     id="layer1"
     transform="translate(-100.38439,-134.29067)"><path
       style="fill:#000000"
       d="m 103.7386,162.3938 c -2.44904,-0.50191 -3.937888,-3.16506 -2.97231,-5.31665 0.7053,-1.57161 2.62038,-2.10027 3.94372,-1.08867 1.56672,1.19764 0.44389,3.72564 -1.25649,2.82893 -1.03037,-0.54338 -0.35081,-2.32768 0.70354,-1.84728 0.24086,0.10974 0.26959,0.0123 0.0539,-0.18286 -1.10391,-0.99903 -2.80862,0.0288 -2.81124,1.69497 -0.003,2.0573 2.32726,3.60567 4.38109,2.91077 2.69964,-0.9134 3.73962,-4.2493 2.25918,-7.24676 -1.29954,-2.6312 -4.35601,-4.28612 -5.57198,-3.01693 -0.69056,0.72079 -0.0936,1.42101 0.72195,0.84682 0.53376,-0.37579 0.70992,0.099 0.2367,0.63799 -1.00482,1.14442 -2.68376,-0.0625 -2.08305,-1.49743 0.45733,-1.09241 2.39694,-1.52955 3.75945,-0.84728 0.29104,0.14574 0.52916,0.24795 0.52916,0.22712 0,-0.0208 -0.71301,-1.07505 -1.58448,-2.34274 -2.30053,-3.3465 -2.27844,-3.31259 -2.60336,-3.99728 -2.525483,-5.32195 0.22453,-10.66169 4.97269,-9.65554 2.64066,0.55957 4.09572,3.72427 2.64834,5.76003 -1.49661,2.10503 -4.88147,1.03948 -4.39676,-1.38409 0.19164,-0.95816 1.5328,-1.31947 2.24695,-0.60532 0.71471,0.71472 -0.161,2.07306 -1.03494,1.60534 -0.30908,-0.16541 -0.17435,0.0782 0.16884,0.30535 1.31353,0.86926 2.97118,-0.55299 2.62207,-2.24971 -0.43952,-2.13611 -2.79755,-3.23654 -4.84838,-2.26261 -2.54283,1.20759 -3.18176,4.73127 -1.47544,8.13709 0.26692,0.53278 2.80505,4.45453 2.88322,4.45497 0.0111,6e-5 0.008,-0.44775 -0.008,-0.99514 -0.0635,-2.27566 1.53171,-3.66219 3.21063,-2.79059 1.31046,0.68032 0.70009,2.56657 -0.76685,2.36981 -0.41115,-0.0551 -0.50564,-0.38735 -0.13652,-0.47999 0.82222,-0.20637 0.91552,-0.89228 0.15731,-1.1566 -1.48871,-0.51897 -2.3024,2.01592 -1.37387,4.28006 0.0382,0.0931 0.0958,0.26459 0.12799,0.381 0.0322,0.11642 0.3013,0.5437 0.59799,0.94953 0.29669,0.40582 0.53943,0.76531 0.53943,0.79887 0,0.0336 0.0713,0.13968 0.1585,0.23581 0.62747,0.69197 1.61732,2.79487 1.79451,3.81237 0.70825,4.06706 -2.21446,7.46023 -5.79399,6.72664 z"
       id="path1" /></g></svg>
